<?xml version="1.0"?>
<svg xmlns="http://www.w3.org/2000/svg" id="Outline" viewBox="0 0 64 64" width="512" height="512"><path d="M59,18H55.7804l-.62122-2.48535A1.99618,1.99618,0,0,0,53.21875,14H52V8h1a2.00229,2.00229,0,0,0,2-2V4a2.00229,2.00229,0,0,0-2-2H29a2.00229,2.00229,0,0,0-2,2V6a2.00229,2.00229,0,0,0,2,2h1v6H28.78125a1.99618,1.99618,0,0,0-1.94043,1.51465L26.2196,18H23a3.00328,3.00328,0,0,0-3,3v4h2V21a1.001,1.001,0,0,1,1-1H59a1.001,1.001,0,0,1,1,1V53a1.001,1.001,0,0,1-1,1H53V26a3,3,0,0,0-6,0V54H44V26a3,3,0,0,0-6,0V54H35V26a3,3,0,0,0-6,0V54H23a1.001,1.001,0,0,1-1-1V49H20v4a3.00328,3.00328,0,0,0,3,3h5.55634A3.95426,3.95426,0,0,0,28,58a4,4,0,0,0,8,0,3.95426,3.95426,0,0,0-.55634-2H46.55634A3.95426,3.95426,0,0,0,46,58a4,4,0,0,0,8,0,3.95426,3.95426,0,0,0-.55634-2H59a3.00328,3.00328,0,0,0,3-3V21A3.00328,3.00328,0,0,0,59,18ZM29,4H53V6H29Zm-.71973,14,.5-1.99951L28.78125,16H33v2ZM35,18V16a2.00229,2.00229,0,0,0-2-2H32V8H50v6H49a2.00229,2.00229,0,0,0-2,2v2Zm14,0V16h4.21875l.501,2ZM31,26a1,1,0,0,1,2,0V54H31Zm1,34a2,2,0,1,1,2-2A2.00229,2.00229,0,0,1,32,60Zm8-6V26a1,1,0,0,1,2,0V54Zm9-28a1,1,0,0,1,2,0V54H49Zm1,34a2,2,0,1,1,2-2A2.00229,2.00229,0,0,1,50,60Z"/><path d="M4,40H7v4a3.00328,3.00328,0,0,0,3,3H24a3.00328,3.00328,0,0,0,3-3V30a3.00328,3.00328,0,0,0-3-3H10a3.00328,3.00328,0,0,0-3,3v4H4a2.00229,2.00229,0,0,0-2,2v2A2.00229,2.00229,0,0,0,4,40ZM9,30a1.001,1.001,0,0,1,1-1H24a1.001,1.001,0,0,1,1,1V44a1.001,1.001,0,0,1-1,1H10a1.001,1.001,0,0,1-1-1V40h5v.82568a1.98062,1.98062,0,0,0,1.16406,1.81739,2.01488,2.01488,0,0,0,.8418.186,1.98126,1.98126,0,0,0,1.29492-.48486l4.46387-3.8252a1.99912,1.99912,0,0,0,0-3.03759l-4.46289-3.82569A1.99982,1.99982,0,0,0,14,33.17432V34H9ZM4,36H16V33.17432L20.46387,37,16,40.82568V38H4Z"/></svg>
